<svg width="532" height="281" viewBox="0 0 532 281" fill="none" xmlns="http://www.w3.org/2000/svg">
<path d="M519.399 280.7C522.599 280.7 525.399 279.7 527.699 277.9C529.999 276.1 531.199 273.8 531.199 271.2V212.6C527.899 212.6 525.099 213.6 522.799 215.4C520.499 217.2 519.299 219.5 519.299 222.2V280.7H519.399ZM442.899 280.7C446.199 280.7 448.999 279.8 451.299 277.9C453.599 276 454.799 273.8 454.799 271.1V232.9L501.299 275.9C503.699 278.3 506.799 279.9 510.599 280.8L510.699 212.6C507.399 212.6 504.599 213.6 502.299 215.4C499.999 217.2 498.799 219.5 498.799 222.2L498.699 258.6L452.199 216.1C449.799 213.7 446.699 212.4 442.899 212.4V280.7ZM421.299 216.3C420.499 212.8 419.799 211.6 418.599 210.6C416.599 209 414.299 209 413.099 210.6C412.299 211.7 412.399 213.4 413.599 215.9L422.899 235.4L426.099 237.9L421.299 216.3ZM392.599 218.8C391.299 216.1 388.999 214.3 385.899 213.2L382.699 212.5L382.099 212.6L381.399 212.5L378.199 213.2C375.099 214.3 372.799 216.1 371.499 218.8L341.899 280.7H345.499C350.499 280.7 354.199 278.6 356.699 274.5L382.199 221.3L397.399 253.2H378.399C375.199 253.2 372.399 254.2 370.099 256C367.799 257.8 366.599 260.1 366.599 262.8H401.999L407.599 274.5C410.099 278.6 413.899 280.7 418.899 280.7H422.399L392.599 218.8ZM265.299 280.7C268.599 280.7 271.399 279.8 273.699 277.9C275.999 276 277.199 273.8 277.199 271.1V232.9L323.699 275.9C326.099 278.3 329.199 279.9 332.999 280.8L333.099 212.6C329.799 212.6 326.999 213.6 324.699 215.4C322.399 217.2 321.199 219.5 321.199 222.2L321.099 258.6L274.599 216.1C272.199 213.7 269.099 212.4 265.299 212.4V280.7ZM226.799 218.8C225.499 216.1 223.199 214.3 220.099 213.2L216.899 212.5L216.299 212.6L215.599 212.5L212.399 213.2C209.299 214.3 206.999 216.1 205.699 218.8L176.099 280.7H179.699C184.699 280.7 188.399 278.6 190.899 274.5L216.399 221.3L231.599 253.2H212.599C209.399 253.2 206.599 254.2 204.299 256C201.999 257.8 200.799 260.1 200.799 262.8H236.199L241.799 274.5C244.299 278.6 248.099 280.7 253.099 280.7H256.599L226.799 218.8ZM170.699 280.7L132.199 246.6L170.699 212.5C162.999 212.5 157.699 213.1 154.799 214.4C151.699 215.6 149.099 217.2 147.199 219.2L116.199 246.7L147.199 274.2C149.099 276.1 151.699 277.7 154.799 278.9C157.699 280 162.999 280.7 170.699 280.7ZM101.199 280.7C104.499 280.7 107.299 279.7 109.599 277.9C111.899 276.1 113.099 273.8 113.099 271.1V222.1C113.099 219.4 111.899 217.2 109.599 215.3C107.299 213.5 104.499 212.5 101.199 212.5V280.7Z" fill="#707272"/>
<path d="M40.3 98.4001C41 99.8001 41.4 101.3 41.6 102.9C41.8 104.5 41.8 106.1 41.8 107.5V121.8H56.3V71.5001C54.9 71.9001 53.3 72.7001 51.8 73.9001C47.8 77.0001 44.1 82.2001 43.6 86.0001C41.1 86.1001 39.2 86.5001 37.9 87.1001C36.6 87.8001 35.5 88.5001 34.6 89.3001C33.6 90.4001 32.6 91.8001 31.8 93.5001C34 93.5001 35.9 94.0001 37.1 94.8001C38.5 95.9001 39.5 97.1001 40.3 98.4001ZM32 260.8C30 260.8 28.3 261.5 26.8 263C25.3 264.4 24.6 266.2 24.6 268.2C24.6 270.1 25.4 271.8 26.8 273.2C28.2 274.6 30 275.3 32 275.3C34.1 275.3 35.7 274.6 37.3 273.2C38.7 271.8 39.5 270.1 39.5 268.2C39.5 266.2 38.8 264.5 37.3 263C35.7 261.5 34 260.8 32 260.8ZM388.2 105.5C390.3 105.5 391.9 104.8 393.5 103.4C394.9 102 395.7 100.3 395.7 98.3001C395.7 96.3001 395 94.6001 393.5 93.2001C392 91.8001 390.3 91.0001 388.2 91.0001C386.2 91.0001 384.5 91.8001 383 93.2001C381.5 94.7001 380.8 96.3001 380.8 98.3001C380.8 100.3 381.6 102 383 103.4C384.5 104.9 386.2 105.5 388.2 105.5ZM49.4 260.8C47.3 260.8 45.7 261.5 44.1 263C42.7 264.4 41.9 266.2 41.9 268.2C41.9 270.1 42.6 271.8 44.1 273.2C45.6 274.6 47.3 275.3 49.4 275.3C51.4 275.3 53.1 274.6 54.6 273.2C56 271.8 56.8 270.1 56.8 268.2C56.8 266.2 56 264.5 54.6 263C53.1 261.5 51.4 260.8 49.4 260.8ZM124.8 105.5C126.8 105.5 128.5 104.8 130 103.4C131.5 102 132.2 100.3 132.2 98.3001C132.2 96.3001 131.5 94.6001 130 93.2001C128.6 91.8001 126.8 91.0001 124.8 91.0001C122.8 91.0001 121.1 91.8001 119.6 93.2001C118.1 94.7001 117.4 96.3001 117.4 98.3001C117.4 100.3 118.1 102 119.6 103.4C121 104.9 122.8 105.5 124.8 105.5ZM519.8 133.3C513.3 136 506.4 137.2 500.3 137.2H451.5C447.4 137.2 443.5 137.4 439.8 137.8C436.2 138.2 433.2 138.8 430.8 139.5V128.7C430.8 127.1 431.2 125.6 432.1 124.3C432.9 123 434 121.9 435.2 120.9L497.4 83.2001C502.2 80.2001 506.5 77.0001 510.1 73.5001C513.7 70.1001 516.8 66.1001 519.3 61.8001C521.8 57.5001 523.7 52.6001 524.9 47.2001C526.2 41.9001 526.8 35.8001 526.8 29.1001C522.6 39.2001 517.7 46.9001 511.7 53.4001C504.7 60.9001 496.4 66.8001 486.3 72.9001L425 110.1C419.4 113.5 416.5 119.1 416.5 126.8V164.9H418.1C419.7 161.7 422.1 159 425.5 156.7C428.1 155.1 431.7 153.8 436.4 153C441.1 152.2 446.1 151.8 451.6 151.8H496C500.5 151.8 504.4 151.6 507.8 151.2C511.2 150.8 514.1 150.3 516.7 149.7V172.1C516.7 178.6 513.5 181.8 507.2 181.8H418.1H407H391.8V116.9C388.8 117.2 384.7 120.1 381.9 124C380.3 126.3 379.2 128.9 379.1 131.5C376.6 131.6 374.7 132 373.4 132.6C372.1 133.2 371 134 370.2 134.8C369.1 135.9 368.2 137.3 367.4 139.1C369.6 139.1 371.4 139.5 372.7 140.4C374 141.2 375 142.4 375.7 143.7C376.4 145.1 376.8 146.6 377 148.2C377.2 149.9 377.2 151.4 377.2 152.9V181.8H371.5H361.3H308.9C305.3 181.8 302.2 181.1 299.5 179.7C296.9 178.4 292.2 174.7 288.8 171.9L277.8 182.7C282 186 288.4 190.7 293 192.9C297.5 195.1 302.9 196.2 309 196.2H361.4H371.6H407H418.1H507.4C523.3 196.2 531.3 188.2 531.3 172.3V126.3C527.8 129.3 523.9 131.6 519.8 133.3ZM76.9 193.1C71 187.5 63.1 183.7 53.3 181.7C51.7 183.4 49.6 185.3 47.2 187.6C44.8 189.8 42.2 191.9 39.5 194C43.2 194.4 46.9 195.1 50.7 196.2C54.5 197.3 57.9 198.7 61 200.4C64.1 202.1 66.6 204.1 68.4 206.3C70.3 208.5 71.2 211 71.2 213.7C71.2 216.7 70.5 219.3 69 221.7C67.5 224.1 65.6 226 63 227.6C60.5 229.2 57.4 230.4 54 231.3C50.5 232.2 46.8 232.6 42.9 232.6C39 232.6 35.3 232.2 31.8 231.3C28.4 230.4 25.3 229.2 22.8 227.6C20.3 226 18.3 224 16.8 221.6C15.3 219.2 14.6 216.6 14.6 213.6C14.6 211.6 15.1 209.7 16.1 207.9C17.1 206.1 18.4 204.5 20 202.9C21.6 201.4 23.4 199.9 25.5 198.5C27.6 197.1 29.7 195.7 31.8 194.2C34.6 192.4 37.5 190.5 40.3 188.3C43.2 186.2 45.9 183.8 48.2 181.2C50.5 178.5 52.5 175.5 54 172.1C55.5 168.8 56.3 165 56.3 160.7L56.2 143.9H41.8V160.7C41.8 163.3 41.3 165.7 40.1 167.9C39 170.1 37.6 172.1 35.8 173.9C34 175.7 32 177.4 29.8 178.9C27.6 180.4 25.3 181.9 22.9 183.3C20.2 185.1 17.5 186.9 14.8 188.9C12.1 190.8 9.6 193 7.4 195.4C5.2 197.8 3.5 200.5 2.1 203.4C0.7 206.3 0 209.7 0 213.4C0 218.4 1.1 222.9 3.3 227C5.5 231.1 8.5 234.6 12.4 237.5C16.2 240.4 20.7 242.6 25.9 244.2C31.1 245.8 36.7 246.6 42.8 246.6C48.7 246.6 54.2 245.8 59.4 244.2C64.6 242.6 69.1 240.4 73.1 237.5C77 234.6 80 231.1 82.3 227C84.5 222.9 85.7 218.4 85.7 213.4C85.7 205.6 82.7 198.7 76.9 193.1ZM287.8 169.6C289.7 167.5 291.5 165.9 293.1 164.5C294.7 163.2 296.2 162.1 297.7 161.4C299.2 160.7 300.7 160.4 302.4 160.4H316.6V144.4C316.6 142.3 316.2 140.2 315.6 138C314.9 135.9 314 133.9 312.6 132.1C311.3 130.3 309.6 128.7 307.6 127.3C305.5 126 303.1 125 300.2 124.5C299.6 123.1 298.9 121.8 298.1 120.6C297.3 119.4 296.2 118.1 294.9 116.6L277.2 97.3001C276.7 96.8001 276.2 96.5001 275.7 96.5001C275.2 96.5001 274.6 96.8001 274.1 97.3001L256.6 116.6C255.3 118.1 254.2 119.4 253.3 120.6C252.5 121.8 251.7 123.1 251.1 124.5C248.3 125 245.8 126 243.7 127.3C241.6 128.6 240 130.3 238.7 132.1C237.4 133.9 236.4 135.9 235.7 138C235.1 140.2 234.7 142.3 234.7 144.4V160.4H248.9C251.3 160.4 253.3 161 255.3 162.3C257.3 163.5 260.9 166.8 263.5 169.1L274 158.6C272.1 156.8 269 153.8 267.3 152.4C265.6 151 263.9 149.9 262 148.9C260.2 148 258.4 147.2 256.4 146.7C254.3 146.1 251.8 145.9 249.3 145.9C249.3 145.6 249.3 145.3 249.3 144.9C249.3 144.1 249.4 143.4 249.7 142.7C250 141.9 250.4 141.1 251 140.3C252 139 253.7 138.4 255.9 138.4H262.8C262.8 135.7 263.2 133.4 264.1 131.5C266 126.8 272.3 121 275.8 117.3L284.1 126.2C285.6 127.8 286.8 129.6 287.6 131.5C288.4 133.4 288.9 135.7 288.9 138.4H295.8C298 138.4 299.7 139.1 300.7 140.3C301.7 141.6 302.2 143 302.2 144.4V146C299.2 146 296.3 146.5 293.7 147.5C291.1 148.5 288.6 149.9 286.1 151.7C283.6 153.5 281.1 155.5 278.7 157.9C276.2 160.3 273.6 162.8 270.9 165.5C268.8 167.6 266.7 169.7 264.5 171.7C263 173.1 261.4 174.5 259.8 175.7C259.2 176.2 258.5 176.6 257.9 177C255.5 178.5 253.1 179.7 250.6 180.6C248.1 181.5 245.3 181.9 242.2 181.9H236.2H225.2H171.7V60.3001C170.7 60.6001 169.7 61.1001 168.8 61.6001C166.1 63.3001 163 66.2001 161.1 69.4001C160 71.1001 159.3 72.9001 159.1 74.7001C156.6 74.8001 154.7 75.2001 153.4 75.8001C152.1 76.5001 151 77.2001 150.2 78.0001C149.1 79.0001 148.2 80.5001 147.4 82.2001C149.6 82.2001 151.4 82.7001 152.7 83.5001C154 84.4001 155 85.5001 155.7 86.9001C156.4 88.2001 156.8 89.7001 157 91.4001C157.2 93.0001 157.2 94.5001 157.2 96.0001V196H225.2H236H242C246.7 196 251 195.4 254.8 194.2C258.6 193 262 191.5 265.1 189.5C268.2 187.6 271 185.5 273.6 183.2C276.2 180.9 278.7 178.6 281 176.3C283.6 174 285.8 171.7 287.8 169.6ZM123.5 131.5C121 131.6 119.1 132 117.8 132.6C116.5 133.2 115.4 134 114.6 134.8C113.5 135.9 112.6 137.3 111.8 139.1C114 139.1 115.8 139.5 117.1 140.4C118.4 141.2 119.4 142.4 120.1 143.7C120.8 145.1 121.2 146.6 121.4 148.2C121.6 149.9 121.6 151.4 121.6 152.9V181.8H113.4H102.2H102.1C99.4 181.8 97.2 180.9 95.5 179.1C93.8 177.3 93 175.1 93 172.4V161.1C93 156.3 92.1 151.7 90.3 147.4C88.4 143.1 85.9 139.4 82.7 136.2C79.5 133 75.8 130.5 71.5 128.6C67.2 126.8 62.6 125.9 57.8 125.9H8.5V153.9C8.5 157.2 8.7 160.1 9 162.7C9.4 165.2 10 167.5 10.9 169.6C11.7 171.8 13 173.7 14.6 175.5C16.2 177.3 18.2 179.1 20.7 180.8C22.9 179.5 25.3 178.1 27.7 176.6C30.1 175 32 173.5 33.7 171.8C31.3 170.3 29.4 169 28 167.7C26.5 166.4 25.4 165.1 24.6 163.7C23.9 162.4 23.3 160.9 23.1 159.3C22.9 157.7 22.8 155.9 22.8 153.9V140.4H57.8C60.6 140.4 63.3 140.9 65.8 142C68.3 143.1 70.6 144.5 72.4 146.4C74.3 148.3 75.8 150.5 76.9 153C77.9 155.5 78.5 158.2 78.5 161V172.3C78.5 179.4 80.6 185.1 84.7 189.5C88.7 193.7 94.2 195.9 101.3 196.1H101.4C101.7 196.1 101.9 196.1 102.2 196.1H102.3H113.5H136.2V116.7C133.3 117.5 130.8 119.2 128.8 121.3C125.8 124.6 123.9 128.5 123.5 131.5Z" fill="#961A4B"/>
<path d="M325 115.8C325.6 115.8 326.1 115.3 326.1 114.7C326.1 114.1 325.6 113.6 325 113.6H320.1V108.7C320.1 108.1 319.6 107.6 319 107.6C318.4 107.6 317.9 108.1 317.9 108.7V113.6H313C312.4 113.6 311.9 114.1 311.9 114.7C311.9 115.3 312.4 115.8 313 115.8H317.9V120.7C317.9 121.3 318.4 121.8 319 121.8C319.6 121.8 320.1 121.3 320.1 120.7V115.8H325Z" fill="#961A4B"/>
<path d="M316.7 107.6C317.3 107.6 317.8 107.1 317.8 106.5C317.8 105.9 317.3 105.4 316.7 105.4H311.8V100.5C311.8 99.8999 311.3 99.3999 310.7 99.3999C310.1 99.3999 309.6 99.8999 309.6 100.5V105.4H304.7C304.1 105.4 303.6 105.9 303.6 106.5C303.6 107.1 304.1 107.6 304.7 107.6H309.6V112.5C309.6 113.1 310.1 113.6 310.7 113.6C311.3 113.6 311.8 113.1 311.8 112.5V107.6H316.7Z" fill="#961A4B"/>
<path d="M341.6 115.8C342.2 115.8 342.7 115.3 342.7 114.7C342.7 114.1 342.2 113.6 341.6 113.6H336.8V108.7C336.8 108.1 336.3 107.6 335.7 107.6C335.1 107.6 334.6 108.1 334.6 108.7V113.6H329.7C329.1 113.6 328.6 114.1 328.6 114.7C328.6 115.3 329.1 115.8 329.7 115.8H334.6V120.7C334.6 121.3 335.1 121.8 335.7 121.8C336.3 121.8 336.8 121.3 336.8 120.7V115.8H341.6Z" fill="#961A4B"/>
<path d="M333.299 107.6C333.899 107.6 334.399 107.1 334.399 106.5C334.399 105.9 333.899 105.4 333.299 105.4H328.399V100.5C328.399 99.8999 327.899 99.3999 327.299 99.3999C326.699 99.3999 326.199 99.8999 326.199 100.5V105.4H321.299C320.699 105.4 320.199 105.9 320.199 106.5C320.199 107.1 320.699 107.6 321.299 107.6H326.199V112.5C326.199 113.1 326.699 113.6 327.299 113.6C327.899 113.6 328.399 113.1 328.399 112.5V107.6H333.299Z" fill="#961A4B"/>
<path d="M325 99.3001C325.6 99.3001 326.1 98.8001 326.1 98.2001C326.1 97.6001 325.6 97.1001 325 97.1001H320.2V92.2001C320.2 91.6001 319.7 91.1001 319.1 91.1001C318.5 91.1001 318 91.6001 318 92.2001V97.0001H313.1C312.5 97.0001 312 97.5001 312 98.1001C312 98.7001 312.5 99.2001 313.1 99.2001H318V104.1C318 104.7 318.5 105.2 319.1 105.2C319.7 105.2 320.2 104.7 320.2 104.1V99.2001H325V99.3001Z" fill="#961A4B"/>
<path d="M349.901 107.6C350.501 107.6 351.001 107.1 351.001 106.5C351.001 105.9 350.501 105.4 349.901 105.4H345.001V100.5C345.001 99.8999 344.501 99.3999 343.901 99.3999C343.301 99.3999 342.801 99.8999 342.801 100.5V105.4H337.901C337.301 105.4 336.801 105.9 336.801 106.5C336.801 107.1 337.301 107.6 337.901 107.6H342.801V112.5C342.801 113.1 343.301 113.6 343.901 113.6C344.501 113.6 345.001 113.1 345.001 112.5V107.7L349.901 107.6Z" fill="#961A4B"/>
<path d="M341.6 99.3001C342.2 99.3001 342.7 98.8001 342.7 98.2001C342.7 97.6001 342.2 97.1001 341.6 97.1001H336.7V92.2001C336.7 91.6001 336.2 91.1001 335.6 91.1001C335 91.1001 334.5 91.6001 334.5 92.2001V97.1001H329.6C329 97.1001 328.5 97.6001 328.5 98.2001C328.5 98.8001 329 99.3001 329.6 99.3001H334.4V104.2C334.4 104.8 334.9 105.3 335.5 105.3C336.1 105.3 336.6 104.8 336.6 104.2V99.3001H341.6Z" fill="#961A4B"/>
<path d="M333.299 91C333.899 91 334.399 90.5 334.399 89.9C334.399 89.3 333.899 88.8 333.299 88.8H328.399V83.9C328.399 83.3 327.899 82.8 327.299 82.8C326.699 82.8 326.199 83.3 326.199 83.9V88.8H321.299C320.699 88.8 320.199 89.3 320.199 89.9C320.199 90.5 320.699 91 321.299 91H326.199V95.9C326.199 96.5 326.699 97 327.299 97C327.899 97 328.399 96.5 328.399 95.9V91H333.299Z" fill="#961A4B"/>
<path d="M358.2 99.3001C358.8 99.3001 359.3 98.8001 359.3 98.2001C359.3 97.6001 358.8 97.1001 358.2 97.1001H353.3V92.2001C353.3 91.6001 352.8 91.1001 352.2 91.1001C351.6 91.1001 351.1 91.6001 351.1 92.2001V97.1001H346.2C345.6 97.1001 345.1 97.6001 345.1 98.2001C345.1 98.8001 345.6 99.3001 346.2 99.3001H351.1V104.2C351.1 104.8 351.6 105.3 352.2 105.3C352.8 105.3 353.3 104.8 353.3 104.2V99.3001H358.2Z" fill="#961A4B"/>
<path d="M349.901 91C350.501 91 351.001 90.5 351.001 89.9C351.001 89.3 350.501 88.8 349.901 88.8H345.001V83.9C345.001 83.3 344.501 82.8 343.901 82.8C343.301 82.8 342.801 83.3 342.801 83.9V88.8H337.901C337.301 88.8 336.801 89.3 336.801 89.9C336.801 90.5 337.301 91 337.901 91H342.801V95.9C342.801 96.5 343.301 97 343.901 97C344.501 97 345.001 96.5 345.001 95.9V91H349.901Z" fill="#961A4B"/>
<path d="M366.401 91C367.001 91 367.501 90.5 367.501 89.9C367.501 89.3 367.001 88.8 366.401 88.8H361.501V83.9C361.501 83.3 361.001 82.8 360.401 82.8C359.801 82.8 359.301 83.3 359.301 83.9V88.8H354.401C353.801 88.8 353.301 89.3 353.301 89.9C353.301 90.5 353.801 91 354.401 91H359.301V95.9C359.301 96.5 359.801 97 360.401 97C361.001 97 361.501 96.5 361.501 95.9V91H366.401Z" fill="#961A4B"/>
<path d="M245.7 67.4C245.7 66.8 245.2 66.3 244.6 66.3C244 66.3 243.5 66.8 243.5 67.4V72.3H238.6C238 72.3 237.5 72.8 237.5 73.4C237.5 74 238 74.5 238.6 74.5H243.5V79.4C243.5 80 244 80.5 244.6 80.5C245.2 80.5 245.7 80 245.7 79.4V74.5H250.6C251.2 74.5 251.7 74 251.7 73.4C251.7 72.8 251.2 72.3 250.6 72.3H245.8L245.7 67.4Z" fill="#961A4B"/>
<path d="M254.001 75.7001C254.001 75.1001 253.501 74.6001 252.901 74.6001C252.301 74.6001 251.801 75.1001 251.801 75.7001V80.6001H246.901C246.301 80.6001 245.801 81.1001 245.801 81.7001C245.801 82.3001 246.301 82.8001 246.901 82.8001H251.801V87.7001C251.801 88.3001 252.301 88.8001 252.901 88.8001C253.501 88.8001 254.001 88.3001 254.001 87.7001V82.8001H258.901C259.501 82.8001 260.001 82.3001 260.001 81.7001C260.001 81.1001 259.501 80.6001 258.901 80.6001H254.001V75.7001Z" fill="#961A4B"/>
<path d="M262.2 83.9999C262.2 83.3999 261.7 82.8999 261.1 82.8999C260.5 82.8999 260 83.3999 260 83.9999V88.8999H255.1C254.5 88.8999 254 89.3999 254 89.9999C254 90.5999 254.5 91.0999 255.1 91.0999H260V95.9999C260 96.5999 260.5 97.0999 261.1 97.0999C261.7 97.0999 262.2 96.5999 262.2 95.9999V91.0999H267.1C267.7 91.0999 268.2 90.5999 268.2 89.9999C268.2 89.3999 267.7 88.8999 267.1 88.8999H262.2V83.9999Z" fill="#961A4B"/>
<path d="M245.7 50.9C245.7 50.3 245.2 49.8 244.6 49.8C244 49.8 243.5 50.3 243.5 50.9V55.8H238.6C238 55.8 237.5 56.3 237.5 56.9C237.5 57.5 238 58 238.6 58H243.5V62.9C243.5 63.5 244 64 244.6 64C245.2 64 245.7 63.5 245.7 62.9V58H250.6C251.2 58 251.7 57.5 251.7 56.9C251.7 56.3 251.2 55.8 250.6 55.8H245.7V50.9Z" fill="#961A4B"/>
<path d="M254.001 59.1C254.001 58.5 253.501 58 252.901 58C252.301 58 251.801 58.5 251.801 59.1V64H246.901C246.301 64 245.801 64.5 245.801 65.1C245.801 65.7 246.301 66.2 246.901 66.2H251.801V71C251.801 71.6 252.301 72.1 252.901 72.1C253.501 72.1 254.001 71.6 254.001 71V66.1H258.901C259.501 66.1 260.001 65.6 260.001 65C260.001 64.4 259.501 63.9 258.901 63.9H254.001V59.1Z" fill="#961A4B"/>
<path d="M262.2 67.4C262.2 66.8 261.7 66.3 261.1 66.3C260.5 66.3 260 66.8 260 67.4V72.3H255.2C254.6 72.3 254.1 72.8 254.1 73.4C254.1 74 254.6 74.5 255.2 74.5H260.1V79.4C260.1 80 260.6 80.5 261.2 80.5C261.8 80.5 262.3 80 262.3 79.4V74.5H267.2C267.8 74.5 268.3 74 268.3 73.4C268.3 72.8 267.8 72.3 267.2 72.3H262.2V67.4Z" fill="#961A4B"/>
<path d="M270.501 75.7001C270.501 75.1001 270.001 74.6001 269.401 74.6001C268.801 74.6001 268.301 75.1001 268.301 75.7001V80.6001H263.401C262.801 80.6001 262.301 81.1001 262.301 81.7001C262.301 82.3001 262.801 82.8001 263.401 82.8001H268.301V87.7001C268.301 88.3001 268.801 88.8001 269.401 88.8001C270.001 88.8001 270.501 88.3001 270.501 87.7001V82.8001H275.401C276.001 82.8001 276.501 82.3001 276.501 81.7001C276.501 81.1001 276.001 80.6001 275.401 80.6001H270.501V75.7001Z" fill="#961A4B"/>
<path d="M245.7 34.2999C245.7 33.6999 245.2 33.2 244.6 33.2C244 33.2 243.5 33.6999 243.5 34.2999V39.2H238.6C238 39.2 237.5 39.6999 237.5 40.2999C237.5 40.8999 238 41.3999 238.6 41.3999H243.5V46.3C243.5 46.9 244 47.3999 244.6 47.3999C245.2 47.3999 245.7 46.9 245.7 46.3V41.3999H250.6C251.2 41.3999 251.7 40.8999 251.7 40.2999C251.7 39.6999 251.2 39.2 250.6 39.2H245.7V34.2999Z" fill="#961A4B"/>
<path d="M254.001 42.6C254.001 42 253.501 41.5 252.901 41.5C252.301 41.5 251.801 42 251.801 42.6V47.5H246.901C246.301 47.5 245.801 48 245.801 48.6C245.801 49.2 246.301 49.7 246.901 49.7H251.801V54.6C251.801 55.2 252.301 55.7 252.901 55.7C253.501 55.7 254.001 55.2 254.001 54.6V49.7H258.901C259.501 49.7 260.001 49.2 260.001 48.6C260.001 48 259.501 47.5 258.901 47.5H254.001V42.6Z" fill="#961A4B"/>
<path d="M262.2 50.9C262.2 50.3 261.7 49.8 261.1 49.8C260.5 49.8 260 50.3 260 50.9V55.8H255.2C254.6 55.8 254.1 56.3 254.1 56.9C254.1 57.5 254.6 58 255.2 58H260.1V62.9C260.1 63.5 260.6 64 261.2 64C261.8 64 262.3 63.5 262.3 62.9V58H267.2C267.8 58 268.3 57.5 268.3 56.9C268.3 56.3 267.8 55.8 267.2 55.8H262.2V50.9Z" fill="#961A4B"/>
<path d="M270.501 59.2001C270.501 58.6001 270.001 58.1001 269.401 58.1001C268.801 58.1001 268.301 58.6001 268.301 59.2001V64.1001H263.401C262.801 64.1001 262.301 64.6001 262.301 65.2001C262.301 65.8001 262.801 66.3001 263.401 66.3001H268.301V71.2001C268.301 71.8001 268.801 72.3001 269.401 72.3001C270.001 72.3001 270.501 71.8001 270.501 71.2001V66.3001H275.401C276.001 66.3001 276.501 65.8001 276.501 65.2001C276.501 64.6001 276.001 64.1001 275.401 64.1001H270.501V59.2001Z" fill="#961A4B"/>
<path d="M287.1 75.7001C287.1 75.1001 286.6 74.6001 286 74.6001C285.4 74.6001 284.9 75.1001 284.9 75.7001V80.6001H280C279.4 80.6001 278.9 81.1001 278.9 81.7001C278.9 82.3001 279.4 82.8001 280 82.8001H284.9V87.7001C284.9 88.3001 285.4 88.8001 286 88.8001C286.6 88.8001 287.1 88.3001 287.1 87.7001V82.8001H292C292.6 82.8001 293.1 82.3001 293.1 81.7001C293.1 81.1001 292.6 80.6001 292 80.6001H287.2L287.1 75.7001Z" fill="#961A4B"/>
<path d="M295.399 83.9999C295.399 83.3999 294.899 82.8999 294.299 82.8999C293.699 82.8999 293.199 83.3999 293.199 83.9999V88.8999H288.299C287.699 88.8999 287.199 89.3999 287.199 89.9999C287.199 90.5999 287.699 91.0999 288.299 91.0999H293.199V95.9999C293.199 96.5999 293.699 97.0999 294.299 97.0999C294.899 97.0999 295.399 96.5999 295.399 95.9999V91.0999H300.299C300.899 91.0999 301.399 90.5999 301.399 89.9999C301.399 89.3999 300.899 88.8999 300.299 88.8999H295.499L295.399 83.9999Z" fill="#961A4B"/>
<path d="M287.1 59.1C287.1 58.5 286.6 58 286 58C285.4 58 284.9 58.5 284.9 59.1V64H280C279.4 64 278.9 64.5 278.9 65.1C278.9 65.7 279.4 66.2 280 66.2H284.9V71.1C284.9 71.7 285.4 72.2 286 72.2C286.6 72.2 287.1 71.7 287.1 71.1V66.2H292C292.6 66.2 293.1 65.7 293.1 65.1C293.1 64.5 292.6 64 292 64H287.1V59.1Z" fill="#961A4B"/>
<path d="M295.399 67.4C295.399 66.8 294.899 66.3 294.299 66.3C293.699 66.3 293.199 66.8 293.199 67.4V72.3H288.299C287.699 72.3 287.199 72.8 287.199 73.4C287.199 74 287.699 74.5 288.299 74.5H293.199V79.4C293.199 80 293.699 80.5 294.299 80.5C294.899 80.5 295.399 80 295.399 79.4V74.5H300.299C300.899 74.5 301.399 74 301.399 73.4C301.399 72.8 300.899 72.3 300.299 72.3H295.399V67.4Z" fill="#961A4B"/>
<path d="M303.7 75.7001C303.7 75.1001 303.2 74.6001 302.6 74.6001C302 74.6001 301.5 75.1001 301.5 75.7001V80.6001H296.6C296 80.6001 295.5 81.1001 295.5 81.7001C295.5 82.3001 296 82.8001 296.6 82.8001H301.5V87.7001C301.5 88.3001 302 88.8001 302.6 88.8001C303.2 88.8001 303.7 88.3001 303.7 87.7001V82.8001H308.6C309.2 82.8001 309.7 82.3001 309.7 81.7001C309.7 81.1001 309.2 80.6001 308.6 80.6001H303.7V75.7001Z" fill="#961A4B"/>
<path d="M295.399 50.9C295.399 50.3 294.899 49.8 294.299 49.8C293.699 49.8 293.199 50.3 293.199 50.9V55.8H288.299C287.699 55.8 287.199 56.3 287.199 56.9C287.199 57.5 287.699 58 288.299 58H293.199V62.9C293.199 63.5 293.699 64 294.299 64C294.899 64 295.399 63.5 295.399 62.9V58H300.299C300.899 58 301.399 57.5 301.399 56.9C301.399 56.3 300.899 55.8 300.299 55.8H295.499L295.399 50.9Z" fill="#961A4B"/>
<path d="M303.7 59.2001C303.7 58.6001 303.2 58.1001 302.6 58.1001C302 58.1001 301.5 58.6001 301.5 59.2001V64.1001H296.6C296 64.1001 295.5 64.6001 295.5 65.2001C295.5 65.8001 296 66.3001 296.6 66.3001H301.5V71.2001C301.5 71.8001 302 72.3001 302.6 72.3001C303.2 72.3001 303.7 71.8001 303.7 71.2001V66.3001H308.6C309.2 66.3001 309.7 65.8001 309.7 65.2001C309.7 64.6001 309.2 64.1001 308.6 64.1001H303.7V59.2001Z" fill="#961A4B"/>
<path d="M311.899 67.4C311.899 66.8 311.399 66.3 310.799 66.3C310.199 66.3 309.699 66.8 309.699 67.4V72.3H304.799C304.199 72.3 303.699 72.8 303.699 73.4C303.699 74 304.199 74.5 304.799 74.5H309.699V79.4C309.699 80 310.199 80.5 310.799 80.5C311.399 80.5 311.899 80 311.899 79.4V74.5H316.799C317.399 74.5 317.899 74 317.899 73.4C317.899 72.8 317.399 72.3 316.799 72.3H311.899V67.4Z" fill="#961A4B"/>
<path d="M303.7 42.6C303.7 42 303.2 41.5 302.6 41.5C302 41.5 301.5 42 301.5 42.6V47.5H296.6C296 47.5 295.5 48 295.5 48.6C295.5 49.2 296 49.7 296.6 49.7H301.5V54.6C301.5 55.2 302 55.7 302.6 55.7C303.2 55.7 303.7 55.2 303.7 54.6V49.7H308.6C309.2 49.7 309.7 49.2 309.7 48.6C309.7 48 309.2 47.5 308.6 47.5H303.7V42.6Z" fill="#961A4B"/>
<path d="M311.899 50.9C311.899 50.3 311.399 49.8 310.799 49.8C310.199 49.8 309.699 50.3 309.699 50.9V55.8H304.799C304.199 55.8 303.699 56.3 303.699 56.9C303.699 57.5 304.199 58 304.799 58H309.699V62.9C309.699 63.5 310.199 64 310.799 64C311.399 64 311.899 63.5 311.899 62.9V58H316.799C317.399 58 317.899 57.5 317.899 56.9C317.899 56.3 317.399 55.8 316.799 55.8H311.899V50.9Z" fill="#961A4B"/>
<path d="M311.899 34.2999C311.899 33.6999 311.399 33.2 310.799 33.2C310.199 33.2 309.699 33.6999 309.699 34.2999V39.2H304.799C304.199 39.2 303.699 39.6999 303.699 40.2999C303.699 40.8999 304.199 41.3999 304.799 41.3999H309.699V46.3C309.699 46.9 310.199 47.3999 310.799 47.3999C311.399 47.3999 311.899 46.9 311.899 46.3V41.3999H316.799C317.399 41.3999 317.899 40.8999 317.899 40.2999C317.899 39.6999 317.399 39.2 316.799 39.2H311.899V34.2999Z" fill="#961A4B"/>
<path d="M222.2 88.7C221.6 88.7 221.1 89.2 221.1 89.8C221.1 90.4 221.6 90.8999 222.2 90.8999H227.1V95.8C227.1 96.4 227.6 96.8999 228.2 96.8999C228.8 96.8999 229.3 96.4 229.3 95.8V90.8999H234.2C234.8 90.8999 235.3 90.4 235.3 89.8C235.3 89.2 234.8 88.7 234.2 88.7H229.3V83.8C229.3 83.2 228.8 82.7 228.2 82.7C227.6 82.7 227.1 83.2 227.1 83.8V88.7H222.2Z" fill="#961A4B"/>
<path d="M230.401 97C229.801 97 229.301 97.5 229.301 98.1C229.301 98.7 229.801 99.2 230.401 99.2H235.201V104.1C235.201 104.7 235.701 105.2 236.301 105.2C236.901 105.2 237.401 104.7 237.401 104.1V99.2H242.301C242.901 99.2 243.401 98.7 243.401 98.1C243.401 97.5 242.901 97 242.301 97H237.401V92.1C237.401 91.5 236.901 91 236.301 91C235.701 91 235.201 91.5 235.201 92.1V97H230.401Z" fill="#961A4B"/>
<path d="M238.7 105.3C238.1 105.3 237.6 105.8 237.6 106.4C237.6 107 238.1 107.5 238.7 107.5H243.6V112.4C243.6 113 244.1 113.5 244.7 113.5C245.3 113.5 245.8 113 245.8 112.4V107.5H250.7C251.3 107.5 251.8 107 251.8 106.4C251.8 105.8 251.3 105.3 250.7 105.3H245.8V100.4C245.8 99.8 245.3 99.3 244.7 99.3C244.1 99.3 243.6 99.8 243.6 100.4V105.3H238.7Z" fill="#961A4B"/>
<path d="M205.6 88.7C205 88.7 204.5 89.2 204.5 89.8C204.5 90.4 205 90.8999 205.6 90.8999H210.5V95.8C210.5 96.4 211 96.8999 211.6 96.8999C212.2 96.8999 212.7 96.4 212.7 95.8V90.8999H217.6C218.2 90.8999 218.7 90.4 218.7 89.8C218.7 89.2 218.2 88.7 217.6 88.7H212.7V83.8C212.7 83.2 212.2 82.7 211.6 82.7C211 82.7 210.5 83.2 210.5 83.8V88.7H205.6Z" fill="#961A4B"/>
<path d="M213.901 97C213.301 97 212.801 97.5 212.801 98.1C212.801 98.7 213.301 99.2 213.901 99.2H218.801V104.1C218.801 104.7 219.301 105.2 219.901 105.2C220.501 105.2 221.001 104.7 221.001 104.1V99.2H225.901C226.501 99.2 227.001 98.7 227.001 98.1C227.001 97.5 226.501 97 225.901 97H221.001V92.1C221.001 91.5 220.501 91 219.901 91C219.301 91 218.801 91.5 218.801 92.1V97H213.901Z" fill="#961A4B"/>
<path d="M222.2 105.3C221.6 105.3 221.1 105.8 221.1 106.4C221.1 107 221.6 107.5 222.2 107.5H227.1V112.4C227.1 113 227.6 113.5 228.2 113.5C228.8 113.5 229.3 113 229.3 112.4V107.5H234.2C234.8 107.5 235.3 107 235.3 106.4C235.3 105.8 234.8 105.3 234.2 105.3H229.2V100.4C229.2 99.8 228.7 99.3 228.1 99.3C227.5 99.3 227 99.8 227 100.4V105.3H222.2Z" fill="#961A4B"/>
<path d="M230.401 113.6C229.801 113.6 229.301 114.1 229.301 114.7C229.301 115.3 229.801 115.8 230.401 115.8H235.301V120.7C235.301 121.3 235.801 121.8 236.401 121.8C237.001 121.8 237.501 121.3 237.501 120.7V115.8H242.401C243.001 115.8 243.501 115.3 243.501 114.7C243.501 114.1 243.001 113.6 242.401 113.6H237.501V108.8C237.501 108.2 237.001 107.7 236.401 107.7C235.801 107.7 235.301 108.2 235.301 108.8V113.7H230.401V113.6Z" fill="#961A4B"/>
<path d="M189 88.7C188.4 88.7 187.9 89.2 187.9 89.8C187.9 90.4 188.4 90.8999 189 90.8999H193.9V95.8C193.9 96.4 194.4 96.8999 195 96.8999C195.6 96.8999 196.1 96.4 196.1 95.8V90.8999H201C201.6 90.8999 202.1 90.4 202.1 89.8C202.1 89.2 201.6 88.7 201 88.7H196.1V83.8C196.1 83.2 195.6 82.7 195 82.7C194.4 82.7 193.9 83.2 193.9 83.8V88.5999H189V88.7Z" fill="#961A4B"/>
<path d="M197.299 97.0001C196.699 97.0001 196.199 97.5001 196.199 98.1001C196.199 98.7001 196.699 99.2001 197.299 99.2001H202.199V104.1C202.199 104.7 202.699 105.2 203.299 105.2C203.899 105.2 204.399 104.7 204.399 104.1V99.2001H209.299C209.899 99.2001 210.399 98.7001 210.399 98.1001C210.399 97.5001 209.899 97.0001 209.299 97.0001H204.399V92.2001C204.399 91.6001 203.899 91.1001 203.299 91.1001C202.699 91.1001 202.199 91.6001 202.199 92.2001V97.0001H197.299Z" fill="#961A4B"/>
<path d="M205.6 105.3C205 105.3 204.5 105.8 204.5 106.4C204.5 107 205 107.5 205.6 107.5H210.5V112.4C210.5 113 211 113.5 211.6 113.5C212.2 113.5 212.7 113 212.7 112.4V107.5H217.6C218.2 107.5 218.7 107 218.7 106.4C218.7 105.8 218.2 105.3 217.6 105.3H212.7V100.4C212.7 99.8 212.2 99.3 211.6 99.3C211 99.3 210.5 99.8 210.5 100.4V105.3H205.6Z" fill="#961A4B"/>
<path d="M213.901 113.6C213.301 113.6 212.801 114.1 212.801 114.7C212.801 115.3 213.301 115.8 213.901 115.8H218.801V120.7C218.801 121.3 219.301 121.8 219.901 121.8C220.501 121.8 221.001 121.3 221.001 120.7V115.8H225.901C226.501 115.8 227.001 115.3 227.001 114.7C227.001 114.1 226.501 113.6 225.901 113.6H221.101V108.7C221.101 108.1 220.601 107.6 220.001 107.6C219.401 107.6 218.901 108.1 218.901 108.7V113.6H213.901Z" fill="#961A4B"/>
<path d="M349.901 74.3999C350.501 74.3999 351.001 73.9 351.001 73.3C351.001 72.7 350.501 72.2 349.901 72.2H345.001V67.3C345.001 66.7 344.501 66.2 343.901 66.2C343.301 66.2 342.801 66.7 342.801 67.3V72.2H337.901C337.301 72.2 336.801 72.7 336.801 73.3C336.801 73.9 337.301 74.3999 337.901 74.3999H342.801V79.3C342.801 79.9 343.301 80.3999 343.901 80.3999C344.501 80.3999 345.001 79.9 345.001 79.3V74.3999H349.901Z" fill="#707272"/>
<path d="M328.501 50.9C328.501 50.3 328.001 49.8 327.401 49.8C326.801 49.8 326.301 50.3 326.301 50.9V55.8H321.401C320.801 55.8 320.301 56.3 320.301 56.9C320.301 57.5 320.801 58 321.401 58H326.301V62.9C326.301 63.5 326.801 64 327.401 64C328.001 64 328.501 63.5 328.501 62.9V58H333.401C334.001 58 334.501 57.5 334.501 56.9C334.501 56.3 334.001 55.8 333.401 55.8H328.501V50.9Z" fill="#707272"/>
<path d="M328.499 67.4C328.499 67.1 328.399 66.8 328.099 66.6C327.899 66.4 327.599 66.2 327.299 66.3C326.699 66.3 326.199 66.8 326.199 67.4V72.3H321.299C320.699 72.3 320.199 72.8 320.199 73.4C320.199 73.7 320.299 74 320.499 74.2C320.699 74.4 320.999 74.6 321.299 74.6H326.099V79.4C326.099 79.7 326.199 80 326.499 80.2C326.699 80.4 326.999 80.6 327.299 80.6C327.899 80.6 328.399 80.1 328.399 79.5V74.7H333.299C333.899 74.7 334.399 74.2 334.399 73.6C334.399 73.3 334.299 73 333.999 72.8C333.799 72.6 333.499 72.4 333.199 72.4H328.399L328.499 67.4Z" fill="#707272"/>
<path d="M320.2 75.7001C320.2 75.4001 320.1 75.1001 319.8 74.9001C319.6 74.7001 319.3 74.6001 319 74.6001C318.4 74.6001 317.9 75.1001 317.9 75.7001V80.6001H313C312.4 80.6001 311.9 81.1001 311.9 81.7001C311.9 82.0001 312 82.3001 312.2 82.5001C312.4 82.7001 312.7 82.9001 313 82.9001H317.8V87.7001C317.8 88.0001 317.9 88.3001 318.2 88.5001C318.4 88.7001 318.7 88.8001 319 88.8001C319.6 88.8001 320.1 88.3001 320.1 87.7001V82.8001H325C325.6 82.8001 326.1 82.3001 326.1 81.7001C326.1 81.4001 326 81.1001 325.8 80.9001C325.6 80.7001 325.3 80.5001 325 80.5001H320.2V75.7001Z" fill="#707272"/>
<path d="M293.199 17.7001C293.199 17.1001 293.699 16.6001 294.299 16.6001C294.899 16.6001 295.399 17.1001 295.399 17.7001V22.6001H300.299C300.899 22.6001 301.399 23.1001 301.399 23.7001C301.399 24.3001 300.899 24.8001 300.299 24.8001H295.399V29.7001C295.399 30.3001 294.899 30.8001 294.299 30.8001C293.699 30.8001 293.199 30.3001 293.199 29.7001V24.8001H288.299C287.699 24.8001 287.199 24.3001 287.199 23.7001C287.199 23.1001 287.699 22.6001 288.299 22.6001H293.199V17.7001Z" fill="#707272"/>
<path d="M260.1 17.7001C260.1 17.1001 260.6 16.6001 261.2 16.6001C261.8 16.6001 262.3 17.1001 262.3 17.7001V22.6001H267.2C267.8 22.6001 268.3 23.1001 268.3 23.7001C268.3 24.3001 267.8 24.8001 267.2 24.8001H262.3V29.7001C262.3 30.3001 261.8 30.8001 261.2 30.8001C260.6 30.8001 260.1 30.3001 260.1 29.7001V24.8001H255.2C254.6 24.8001 254.1 24.3001 254.1 23.7001C254.1 23.1001 254.6 22.6001 255.2 22.6001H260.1V17.7001Z" fill="#707272"/>
<path d="M268.4 25.9999C268.4 25.3999 268.9 24.8999 269.5 24.8999C270.1 24.8999 270.6 25.3999 270.6 25.9999V30.8999H275.5C276.1 30.8999 276.6 31.3999 276.6 31.9999C276.6 32.5999 276.1 33.0999 275.5 33.0999H270.6V37.9999C270.6 38.5999 270.1 39.0999 269.5 39.0999C268.9 39.0999 268.4 38.5999 268.4 37.9999V33.0999H263.5C262.9 33.0999 262.4 32.5999 262.4 31.9999C262.4 31.3999 262.9 30.8999 263.5 30.8999H268.4V25.9999Z" fill="#707272"/>
<path d="M284.9 25.9999C284.9 25.3999 285.4 24.8999 286 24.8999C286.6 24.8999 287.1 25.3999 287.1 25.9999V30.8999H292C292.6 30.8999 293.1 31.3999 293.1 31.9999C293.1 32.5999 292.6 33.0999 292 33.0999H287.1V37.9999C287.1 38.5999 286.6 39.0999 286 39.0999C285.4 39.0999 284.9 38.5999 284.9 37.9999V33.0999H280C279.4 33.0999 278.9 32.5999 278.9 31.9999C278.9 31.3999 279.4 30.8999 280 30.8999H284.9V25.9999Z" fill="#707272"/>
<path d="M276.6 34.2999C276.6 33.6999 277.1 33.2 277.7 33.2C278.3 33.2 278.8 33.6999 278.8 34.2999V39.2H283.7C284.3 39.2 284.8 39.6999 284.8 40.2999C284.8 40.8999 284.3 41.3999 283.7 41.3999H278.8V46.3C278.8 46.9 278.3 47.3999 277.7 47.3999C277.1 47.3999 276.6 46.9 276.6 46.3V41.3999H271.7C271.1 41.3999 270.6 40.8999 270.6 40.2999C270.6 39.6999 271.1 39.2 271.7 39.2H276.6V34.2999Z" fill="#707272"/>
<path d="M276.6 17.7001C276.6 17.1001 277.1 16.6001 277.7 16.6001C278.3 16.6001 278.8 17.1001 278.8 17.7001V22.6001H283.7C284.3 22.6001 284.8 23.1001 284.8 23.7001C284.8 24.3001 284.3 24.8001 283.7 24.8001H278.8V29.7001C278.8 30.3001 278.3 30.8001 277.7 30.8001C277.1 30.8001 276.6 30.3001 276.6 29.7001V24.8001H271.7C271.1 24.8001 270.6 24.3001 270.6 23.7001C270.6 23.1001 271.1 22.6001 271.7 22.6001H276.6V17.7001Z" fill="#707272"/>
<path d="M276.699 1.10001C276.699 0.500006 277.199 0 277.799 0C278.399 0 278.899 0.500006 278.899 1.10001V6H283.799C284.399 6 284.899 6.50001 284.899 7.10001C284.899 7.70001 284.399 8.20001 283.799 8.20001H278.899V13.1C278.899 13.7 278.399 14.2 277.799 14.2C277.199 14.2 276.699 13.7 276.699 13.1V8.20001H271.799C271.199 8.20001 270.699 7.70001 270.699 7.10001C270.699 6.50001 271.199 6 271.799 6H276.699V1.10001Z" fill="#707272"/>
<path d="M205.6 74.3999C205 74.3999 204.5 73.9 204.5 73.3C204.5 72.7 205 72.2 205.6 72.2H210.5V67.3C210.5 66.7 211 66.2 211.6 66.2C212.2 66.2 212.7 66.7 212.7 67.3V72.2H217.6C218.2 72.2 218.7 72.7 218.7 73.3C218.7 73.9 218.2 74.3999 217.6 74.3999H212.7V79.3C212.7 79.9 212.2 80.3999 211.6 80.3999C211 80.3999 210.5 79.9 210.5 79.3V74.3999H205.6Z" fill="#707272"/>
<path d="M226.9 50.8C226.9 50.2 227.4 49.7 228 49.7C228.6 49.7 229.1 50.2 229.1 50.8V55.7H234C234.6 55.7 235.1 56.2 235.1 56.8C235.1 57.4 234.6 57.8999 234 57.8999H229.1V62.8C229.1 63.4 228.6 63.8999 228 63.8999C227.4 63.8999 226.9 63.4 226.9 62.8V57.8999H222C221.4 57.8999 220.9 57.4 220.9 56.8C220.9 56.2 221.4 55.7 222 55.7H226.9V50.8Z" fill="#707272"/>
<path d="M226.9 67.4C226.9 67.1 227 66.8 227.3 66.6C227.5 66.4 227.8 66.2 228.1 66.3C228.7 66.3 229.2 66.8 229.2 67.4V72.3H234.1C234.7 72.3 235.2 72.8 235.2 73.4C235.2 73.7 235.1 74 234.9 74.2C234.7 74.4 234.4 74.6 234.1 74.6H229.3V79.4C229.3 79.7 229.2 80 228.9 80.2C228.7 80.4 228.4 80.6 228.1 80.6C227.5 80.6 227 80.1 227 79.5V74.7H222.1C221.5 74.7 221 74.2 221 73.6C221 73.3 221.1 73 221.4 72.8C221.6 72.6 221.9 72.4 222.2 72.4H227L226.9 67.4Z" fill="#707272"/>
<path d="M235.201 75.7001C235.201 75.4001 235.301 75.1001 235.601 74.9001C235.801 74.7001 236.101 74.6001 236.401 74.6001C237.001 74.6001 237.501 75.1001 237.501 75.7001V80.6001H242.401C243.001 80.6001 243.501 81.1001 243.501 81.7001C243.501 82.0001 243.401 82.3001 243.201 82.5001C243.001 82.7001 242.701 82.9001 242.401 82.9001H237.601V87.7001C237.601 88.0001 237.501 88.3001 237.201 88.5001C237.001 88.7001 236.701 88.8001 236.401 88.8001C235.801 88.8001 235.301 88.3001 235.301 87.7001V82.8001H230.401C229.801 82.8001 229.301 82.3001 229.301 81.7001C229.301 81.4001 229.401 81.1001 229.601 80.9001C229.801 80.7001 230.101 80.5001 230.401 80.5001H235.201V75.7001Z" fill="#707272"/>
</svg>
